<?xml version="1.0" standalone="no"?>
<!DOCTYPE svg PUBLIC "-//W3C//DTD SVG 20010904//EN"
 "http://www.w3.org/TR/2001/REC-SVG-20010904/DTD/svg10.dtd">
<svg version="1.0" xmlns="http://www.w3.org/2000/svg"
 width="512.000000pt" height="512.000000pt" viewBox="0 0 512.000000 512.000000"
 preserveAspectRatio="xMidYMid meet">
<metadata>
Created by potrace 1.11, written by Peter Selinger 2001-2013
</metadata>
<g transform="translate(0.000000,512.000000) scale(0.100000,-0.100000)"
fill="#000000" stroke="none">
<path d="M4105 4530 c3 -6 -1 -10 -10 -10 -9 0 -13 -4 -10 -10 3 -5 1 -10 -6
-10 -12 0 -97 -65 -111 -85 -4 -5 -8 -6 -8 -1 0 5 -8 -1 -19 -12 -10 -12 -22
-22 -27 -22 -5 0 -16 -9 -24 -19 -7 -11 -17 -18 -22 -15 -4 3 -8 0 -8 -5 0 -6
-4 -10 -9 -8 -5 1 -16 -6 -23 -15 -12 -16 -15 -16 -48 -1 -19 10 -36 21 -38
25 -2 4 -10 8 -18 8 -8 0 -14 5 -14 10 0 6 -9 10 -20 10 -11 0 -20 6 -20 14 0
8 -7 17 -16 20 -15 6 -15 4 -3 -11 11 -14 9 -13 -13 2 -15 11 -28 23 -28 28 0
4 -7 7 -16 7 -9 0 -12 5 -8 12 4 6 3 8 -4 4 -6 -3 -17 1 -25 9 -9 8 -21 15
-28 15 -6 0 -19 8 -28 18 -25 27 -40 25 -35 -6 3 -14 11 -30 17 -34 9 -6 8 -8
-2 -8 -10 0 -9 -5 5 -17 10 -10 19 -24 20 -30 3 -40 5 -44 17 -37 8 5 8 2 -2
-9 -8 -10 -9 -17 -3 -17 6 0 9 -9 7 -20 -2 -11 1 -19 7 -17 11 2 20 -24 19
-56 0 -9 4 -15 9 -12 5 3 11 1 15 -5 3 -5 1 -10 -6 -10 -7 0 -5 -8 7 -22 10
-12 14 -18 7 -15 -12 7 -12 -17 0 -29 10 -11 9 -36 -2 -30 -5 3 -12 -1 -15
-10 -3 -8 -10 -12 -16 -9 -5 3 -10 0 -10 -8 0 -14 -27 -32 -42 -29 -5 1 -8 -4
-8 -11 0 -8 -15 -22 -34 -32 -19 -11 -33 -23 -30 -27 3 -4 -2 -11 -10 -14 -9
-3 -32 -21 -53 -40 -20 -19 -42 -34 -49 -34 -13 0 -28 -30 -16 -31 57 -5 112
-3 112 4 0 5 7 3 17 -4 13 -11 17 -11 21 -1 3 10 7 10 18 1 11 -9 14 -9 14 0
0 9 5 9 21 0 17 -9 20 -8 14 2 -6 9 -3 10 11 5 30 -12 64 -14 70 -4 3 5 12 4
20 -3 9 -7 14 -8 14 -1 0 7 10 8 29 2 16 -4 33 -5 37 -2 4 4 4 1 0 -5 -4 -7
-3 -13 2 -13 6 0 13 -7 16 -16 4 -10 2 -13 -6 -8 -13 8 -3 -12 20 -38 8 -10
12 -24 8 -33 -3 -9 0 -18 8 -21 8 -3 17 -13 20 -21 6 -14 4 -14 -11 -2 -17 13
-17 13 0 -7 9 -11 17 -28 17 -36 0 -9 5 -18 10 -20 6 -2 12 -13 13 -26 0 -12
5 -22 9 -22 4 0 8 -11 8 -25 0 -14 5 -25 10 -25 6 0 10 -7 8 -16 -2 -10 5 -18
15 -19 9 -2 15 1 11 6 -3 5 -10 6 -16 3 -7 -4 -8 -2 -4 4 4 6 13 9 21 6 10 -4
13 2 11 20 -2 15 1 29 6 32 5 3 7 13 4 21 -4 9 -2 11 6 7 8 -5 9 -2 5 9 -4 10
-1 17 6 17 9 0 8 3 -1 9 -11 7 -11 9 2 14 10 4 13 13 9 23 -4 10 -2 15 3 12 5
-4 9 8 9 25 0 18 5 31 10 30 6 -1 10 14 10 32 -1 20 2 32 8 28 6 -4 8 1 4 11
-4 10 -1 19 7 22 8 3 12 14 9 25 -6 21 -7 21 104 22 34 0 60 4 57 8 -2 4 12 3
31 -1 24 -5 33 -5 28 3 -4 6 0 8 9 4 9 -3 21 0 28 6 10 9 11 9 6 0 -9 -16 6
-17 21 -2 7 7 13 7 17 1 4 -6 17 -7 34 -3 15 4 32 6 39 4 22 -8 22 14 1 33
-15 13 -19 14 -14 4 4 -9 2 -8 -7 3 -8 9 -19 17 -25 17 -6 0 -14 5 -18 12 -5
7 -2 8 7 3 8 -5 11 -4 6 1 -5 5 -16 9 -25 9 -9 0 -16 5 -15 12 2 7 -6 10 -17
8 -12 -2 -18 -1 -16 4 3 4 1 13 -5 21 -6 11 -9 12 -9 2 0 -7 -5 -10 -10 -7 -6
4 -8 11 -4 16 3 5 2 9 -3 8 -15 -4 -64 21 -69 35 -3 8 -19 20 -35 26 -28 12
-31 16 -33 43 -1 6 -5 15 -11 19 -6 5 -5 8 3 8 7 0 10 5 7 10 -3 6 -1 10 6 10
7 0 9 3 6 7 -4 3 -2 12 4 20 9 10 8 13 -2 13 -8 0 -6 6 7 16 10 8 13 13 7 9
-19 -9 -16 6 5 22 9 8 11 12 5 8 -7 -3 -13 -2 -13 2 0 5 6 15 13 22 8 9 8 12
0 7 -6 -3 -3 11 7 31 13 28 15 40 7 45 -9 6 -8 8 1 8 7 0 10 5 7 10 -3 6 0 10
7 10 9 0 9 3 -2 10 -9 6 -11 10 -3 10 7 0 10 7 6 17 -4 9 -2 14 3 10 6 -3 10
5 10 18 0 14 -6 27 -14 30 -7 2 -10 0 -7 -5z"/>
<path d="M2687 4081 c-14 -16 -23 -32 -20 -35 3 -3 -2 -8 -11 -12 -9 -3 -16
-13 -16 -21 0 -8 -4 -11 -10 -8 -5 3 -10 2 -10 -3 0 -15 -49 -67 -56 -59 -4 4
-13 2 -20 -4 -9 -7 -16 -4 -27 11 -10 14 -20 18 -32 14 -13 -5 -16 -4 -11 4 5
8 2 10 -8 6 -9 -3 -16 -2 -16 3 0 9 -6 11 -49 15 -11 1 -18 6 -15 9 2 4 0 10
-6 14 -5 3 -10 1 -10 -4 0 -6 -5 -11 -11 -11 -5 0 -7 5 -3 12 5 7 3 8 -5 4 -9
-6 -9 -12 3 -25 9 -10 16 -23 16 -29 0 -7 5 -12 11 -12 6 0 8 -7 5 -16 -3 -8
-2 -12 4 -9 12 7 29 -26 22 -45 -2 -8 -1 -12 3 -8 10 9 34 -14 28 -28 -2 -6 3
-14 13 -18 12 -5 14 -9 5 -20 -6 -7 -8 -16 -4 -19 3 -4 -2 -7 -12 -7 -10 0
-15 -3 -12 -6 4 -4 -3 -15 -15 -25 -11 -11 -18 -19 -14 -19 4 0 -6 -14 -23
-31 -17 -17 -31 -35 -31 -40 0 -6 -5 -7 -10 -4 -6 3 -5 -6 2 -21 11 -23 14
-25 16 -9 3 14 6 15 13 4 6 -10 9 -10 9 -2 0 7 7 10 17 6 12 -5 14 -3 8 8 -7
11 -5 11 10 -1 11 -9 16 -10 11 -2 -7 12 2 14 61 15 12 0 20 4 17 8 -3 5 7 9
21 9 15 0 24 -4 20 -10 -3 -6 1 -7 9 -4 9 3 16 1 16 -6 0 -6 4 -9 9 -5 6 3 8
-4 6 -16 -3 -16 0 -19 13 -14 9 3 13 3 9 -1 -4 -4 3 -19 15 -33 17 -19 18 -22
4 -11 -19 15 -19 14 -2 -12 10 -16 26 -28 35 -28 10 0 12 -3 5 -8 -8 -5 -5
-13 8 -27 11 -11 18 -15 17 -10 -2 6 2 20 9 33 8 14 9 22 2 22 -7 0 -8 7 -2
18 4 9 7 35 7 57 0 22 4 43 10 47 6 5 4 8 -5 8 -13 0 -13 1 0 10 12 8 12 10 1
10 -8 0 -2 9 13 21 15 11 33 18 42 15 8 -3 17 1 20 9 4 8 10 15 16 15 5 0 6
-6 2 -12 -6 -10 -5 -10 7 -1 9 7 26 15 40 17 13 3 26 5 29 6 3 2 8 2 13 1 4 0
7 3 7 9 0 5 7 7 15 4 19 -8 19 3 1 22 -8 8 -21 11 -29 8 -8 -3 -21 2 -30 10
-9 9 -23 16 -31 16 -9 0 -16 5 -16 10 0 5 -3 9 -7 9 -20 -3 -34 2 -29 10 4 5
-2 7 -12 4 -24 -6 -62 35 -43 46 9 6 10 10 2 15 -6 4 -8 13 -4 19 11 18 14 49
4 43 -5 -4 -8 2 -6 11 2 10 4 22 4 26 1 5 5 6 10 2 6 -3 6 6 1 24 -6 21 -5 31
3 35 8 3 8 5 -1 5 -7 1 -10 6 -7 11 13 22 -13 8 -38 -19z"/>
<path d="M954 4088 c-4 -6 -3 -8 4 -4 12 7 10 -62 -2 -82 -4 -7 -2 -12 6 -12
9 0 9 -3 -2 -10 -8 -5 -11 -10 -7 -10 4 0 3 -8 -2 -18 -7 -13 -6 -23 1 -30 9
-9 9 -12 -1 -12 -11 0 -11 -3 0 -17 8 -9 9 -14 3 -10 -7 4 -14 -2 -17 -13 -3
-11 -1 -20 4 -20 5 0 9 -5 9 -11 0 -6 -7 -8 -16 -5 -13 5 -14 4 -6 -7 7 -8 9
-17 5 -20 -3 -4 0 -14 8 -24 12 -15 12 -16 -3 -10 -13 5 -16 1 -12 -19 3 -18
1 -23 -7 -18 -8 5 -10 2 -7 -8 5 -11 0 -14 -18 -10 -15 3 -24 0 -24 -8 0 -9
-4 -9 -17 1 -11 10 -14 10 -9 2 4 -7 4 -13 -1 -14 -4 0 -21 -3 -38 -5 -16 -3
-36 -6 -42 -6 -7 -1 -13 -6 -13 -12 0 -6 -4 -6 -11 1 -9 9 -15 8 -25 -2 -8 -7
-22 -11 -33 -8 -10 3 -22 0 -25 -6 -4 -6 -12 -11 -17 -11 -6 0 -7 5 -3 11 3 6
-5 4 -19 -5 -20 -13 -26 -14 -30 -4 -4 11 -6 11 -6 0 -1 -7 -5 -11 -10 -7 -5
3 -13 1 -16 -5 -4 -6 -2 -9 4 -8 5 2 17 -6 26 -17 9 -11 13 -14 9 -6 -8 16 9
8 38 -17 9 -7 22 -11 27 -7 6 3 11 -1 11 -9 0 -9 7 -13 20 -11 11 2 20 0 20
-6 0 -5 7 -9 16 -9 9 0 12 -5 8 -12 -5 -7 -3 -8 6 -3 7 4 16 2 21 -6 7 -12 9
-12 9 0 0 11 3 11 15 1 8 -7 12 -16 9 -21 -3 -5 2 -6 10 -3 9 3 16 1 16 -5 0
-6 5 -11 11 -11 5 0 7 6 4 13 -4 6 3 1 15 -13 12 -14 19 -19 15 -12 -3 6 -2
12 3 12 5 0 14 -12 21 -27 10 -21 9 -28 -1 -34 -10 -7 -10 -9 1 -9 10 0 11 -3
2 -13 -8 -10 -7 -17 1 -25 9 -9 9 -12 1 -12 -7 0 -10 -10 -7 -26 3 -19 1 -24
-8 -18 -10 6 -10 5 -2 -7 13 -16 15 -49 2 -49 -4 0 -8 -5 -8 -11 0 -5 6 -7 13
-3 10 6 10 4 0 -7 -15 -16 -17 -43 -3 -34 15 9 12 -2 -6 -19 -12 -12 -12 -16
-2 -16 10 0 9 -3 -2 -10 -13 -9 -13 -11 0 -20 10 -6 11 -10 3 -10 -7 0 -13 -7
-13 -15 0 -8 5 -15 11 -15 5 0 7 -5 3 -12 -4 -7 -3 -8 4 -4 7 4 12 14 12 23 0
9 3 14 6 11 6 -7 44 28 43 38 0 4 10 12 22 18 12 6 21 14 20 19 -2 11 33 44
42 40 4 -2 7 1 7 8 0 6 25 36 55 66 30 30 55 50 55 44 0 -6 9 -11 20 -11 11 0
20 -5 20 -12 0 -6 3 -8 7 -5 3 4 17 0 31 -9 13 -9 21 -11 17 -4 -5 8 -1 8 13
-1 12 -7 18 -17 15 -23 -3 -5 -1 -6 5 -2 7 4 26 0 44 -8 18 -8 40 -16 48 -18
8 -2 18 -7 21 -11 3 -4 15 -9 27 -10 11 0 19 -4 16 -8 -2 -4 9 -12 26 -17 18
-7 32 -7 35 -1 6 8 -1 13 -16 11 -4 -1 -5 8 -2 18 3 11 1 20 -4 20 -5 0 -15
16 -23 35 -8 19 -18 35 -22 35 -5 0 -7 4 -3 9 3 6 -5 20 -17 32 -13 12 -16 18
-8 13 8 -4 5 5 -8 20 -12 16 -20 32 -17 36 3 4 -2 11 -11 14 -8 3 -12 10 -9
16 3 5 1 10 -4 10 -6 0 -11 9 -11 20 0 11 -4 20 -10 20 -16 0 -12 37 5 44 8 3
14 11 13 17 -2 7 7 18 19 24 13 7 20 15 17 18 -4 4 1 9 10 13 9 3 16 12 16 20
0 8 3 13 8 12 4 -2 9 2 11 7 2 6 12 16 22 22 9 7 27 29 39 48 12 19 26 33 31
29 5 -3 9 2 9 10 0 9 6 16 13 16 7 0 13 10 14 21 2 21 1 21 -13 3 -11 -15 -13
-16 -8 -2 4 12 1 16 -12 14 -10 -2 -20 -8 -22 -14 -3 -9 -9 -9 -24 -1 -16 9
-19 8 -13 -2 6 -9 3 -11 -8 -6 -9 3 -19 1 -23 -5 -4 -7 -9 -6 -15 3 -5 9 -9
10 -9 3 0 -7 -7 -15 -16 -18 -8 -3 -12 -2 -9 4 3 6 1 10 -4 10 -6 0 -11 -4
-11 -9 0 -6 -9 -8 -20 -6 -11 2 -20 -1 -20 -8 0 -8 -3 -8 -11 0 -13 13 -42 6
-33 -8 3 -5 -7 -4 -21 1 -14 5 -24 6 -21 1 3 -5 -1 -12 -10 -15 -10 -4 -13 -2
-8 7 5 8 2 7 -9 -2 -12 -9 -17 -10 -17 -2 0 7 -4 9 -10 6 -5 -3 -10 -1 -10 5
0 6 -5 8 -10 5 -6 -4 -10 -3 -9 2 3 20 -2 34 -11 28 -6 -3 -7 1 -4 9 4 9 -6
26 -23 42 -15 15 -22 24 -15 20 17 -10 15 2 -3 21 -8 8 -12 19 -9 25 4 7 2 8
-4 4 -7 -4 -12 -2 -12 4 0 6 -5 8 -12 4 -7 -4 -8 -3 -4 5 10 15 -3 53 -15 46
-5 -4 -9 1 -9 9 0 9 -5 16 -12 16 -6 0 -9 3 -5 6 3 4 -2 14 -11 23 -10 9 -11
12 -3 6 11 -7 13 -7 7 2 -12 22 -44 34 -52 21z"/>
<path d="M1877 3939 c-10 -6 -14 -15 -10 -22 13 -20 10 -70 -5 -102 -13 -26
-13 -29 0 -18 12 11 14 8 10 -17 -2 -18 -9 -27 -15 -23 -7 4 -8 0 -3 -13 4
-10 4 -15 0 -11 -4 4 -13 2 -20 -4 -8 -7 -14 -7 -19 1 -4 7 -11 5 -21 -4 -8
-9 -21 -13 -29 -10 -8 4 -15 2 -15 -3 0 -8 -15 -12 -57 -15 -7 -1 -13 -5 -13
-10 0 -5 -5 -6 -12 -2 -7 4 -8 3 -4 -4 4 -7 14 -12 22 -12 8 0 14 -4 14 -10 0
-5 6 -7 14 -4 7 3 20 -2 29 -10 19 -19 31 -21 22 -3 -4 6 2 2 12 -11 14 -17
21 -20 30 -11 10 10 14 9 19 -4 3 -9 10 -14 15 -11 5 3 9 -1 10 -8 0 -7 2 -23
5 -36 3 -17 0 -21 -8 -16 -7 4 -4 -3 7 -16 11 -13 14 -20 8 -16 -9 5 -13 1
-13 -11 0 -11 6 -25 13 -32 10 -10 9 -11 -3 -6 -13 4 -15 -2 -12 -34 4 -36 6
-39 19 -26 8 9 19 12 25 9 7 -4 8 -2 4 4 -6 10 10 33 70 98 12 12 19 26 15 31
-3 4 2 1 12 -6 11 -9 17 -10 17 -2 0 12 39 -5 52 -24 5 -6 8 -4 8 5 0 9 3 11
8 5 10 -14 55 -39 48 -26 -4 7 -1 8 8 5 9 -3 14 -9 11 -13 -2 -4 2 -8 10 -8 8
0 15 5 16 11 0 6 4 2 9 -9 8 -18 9 -18 9 -2 1 10 -6 25 -14 34 -8 8 -13 19
-10 24 4 5 -1 9 -10 9 -11 0 -15 5 -11 15 3 8 1 15 -5 15 -5 0 -14 11 -21 25
-6 13 -15 22 -21 18 -6 -3 -7 -1 -3 6 4 6 2 18 -4 26 -10 12 -9 15 6 15 15 0
16 2 5 9 -11 7 -9 10 8 16 12 3 19 11 16 16 -4 5 -1 9 5 9 6 0 9 4 5 9 -3 6 3
15 14 20 11 6 23 20 26 31 4 11 10 18 15 15 4 -3 11 2 14 11 3 8 2 12 -4 9 -6
-3 -10 -1 -10 4 0 6 -5 11 -11 11 -5 0 -7 -6 -3 -12 5 -9 2 -9 -9 1 -11 9 -17
10 -17 2 0 -6 -12 -11 -26 -11 -17 0 -23 -4 -18 -12 6 -10 4 -10 -8 0 -12 9
-18 10 -23 2 -4 -6 -13 -9 -21 -6 -8 3 -14 1 -14 -3 0 -12 -42 -1 -57 15 -7 6
-9 14 -6 18 4 3 1 6 -6 6 -7 0 -9 4 -6 10 3 5 -3 15 -15 22 -11 7 -20 18 -20
25 0 7 -4 13 -8 13 -5 0 -12 11 -18 25 -7 20 -12 22 -27 14z"/>
<path d="M1853 3865 c0 -8 4 -12 9 -9 5 3 6 10 3 15 -9 13 -12 11 -12 -6z"/>
<path d="M3730 3405 c0 -14 -5 -25 -12 -25 -6 0 -4 -6 7 -13 12 -10 14 -16 7
-21 -7 -4 -12 -12 -12 -17 0 -6 5 -7 10 -4 15 9 12 -2 -6 -19 -8 -9 -11 -16
-6 -16 7 0 9 -39 2 -47 -2 -2 -3 -9 -4 -15 -1 -7 -9 -12 -19 -10 -9 2 -17 -3
-17 -10 0 -10 -2 -10 -9 0 -6 11 -10 10 -15 -3 -5 -15 -9 -15 -23 -4 -12 10
-15 11 -9 1 6 -9 1 -11 -19 -8 -20 4 -24 2 -16 -7 7 -10 4 -13 -12 -12 -12 0
-28 4 -36 9 -10 6 -12 6 -7 -2 4 -7 2 -12 -5 -12 -8 0 -9 -3 0 -13 6 -8 8 -17
5 -20 -4 -4 3 -5 15 -2 11 2 21 -1 21 -7 0 -6 3 -9 6 -5 4 3 20 -1 36 -9 16
-8 32 -12 37 -10 5 3 15 -2 22 -11 12 -14 12 -16 -1 -8 -12 6 -13 6 -2 -6 10
-11 14 -11 21 -1 5 9 11 6 18 -11 7 -14 8 -30 3 -38 -5 -8 -4 -19 2 -26 6 -8
7 -13 1 -13 -6 0 -9 -16 -6 -35 2 -22 -1 -35 -8 -35 -6 0 -3 -8 8 -17 10 -10
14 -15 7 -10 -8 5 -11 -1 -11 -20 0 -16 2 -22 4 -15 3 6 11 12 19 12 8 0 14 3
14 8 0 4 11 20 25 36 14 16 25 33 25 38 0 5 5 6 10 3 6 -3 10 1 10 9 0 8 9 20
20 26 12 7 18 16 13 23 -4 7 2 5 12 -3 17 -14 18 -13 12 5 -7 19 -6 19 7 2 10
-14 15 -15 19 -5 4 9 6 7 6 -4 1 -11 6 -15 16 -12 8 4 15 2 15 -3 0 -5 6 -10
13 -11 12 -1 47 -9 57 -12 3 -1 8 -2 13 -1 4 0 7 -3 7 -8 0 -5 12 -8 28 -8 15
0 21 2 15 4 -7 3 -13 11 -13 19 0 8 -7 17 -15 20 -8 4 -12 10 -9 15 3 5 0 9
-5 9 -6 0 -11 7 -11 15 0 8 -5 15 -11 15 -5 0 -7 5 -4 10 3 6 1 10 -6 10 -7 0
-9 3 -6 7 4 3 -1 12 -12 19 -10 7 -17 21 -16 31 2 27 16 54 24 48 4 -2 14 11
21 30 8 19 20 35 28 35 8 0 16 9 19 20 3 11 10 20 16 20 6 0 7 3 4 7 -4 3 -3
11 3 17 6 8 3 12 -9 12 -13 0 -17 -5 -13 -16 5 -13 3 -13 -11 -1 -11 8 -17 9
-17 3 0 -7 -7 -9 -17 -5 -9 4 -14 2 -10 -3 3 -6 -7 -9 -24 -8 -16 1 -29 -1
-29 -5 0 -4 -6 -8 -12 -8 -7 0 -17 -2 -23 -3 -23 -6 -55 1 -55 11 0 6 -10 20
-22 31 -13 11 -16 17 -8 13 10 -4 9 -2 -2 8 -10 8 -15 17 -11 20 3 4 1 7 -6 7
-7 0 -9 5 -5 12 4 6 3 8 -3 5 -12 -8 -56 36 -46 46 3 4 1 7 -5 7 -7 0 -12 -11
-12 -25z"/>
<path d="M3756 3421 c-3 -5 1 -14 8 -20 12 -10 13 -8 9 8 -6 23 -9 25 -17 12z"/>
<path d="M2320 3399 c0 -5 -4 -7 -10 -4 -6 3 -7 -1 -4 -9 3 -9 11 -16 16 -16
6 0 5 -6 -2 -15 -10 -12 -10 -15 0 -15 10 0 10 -3 0 -15 -10 -12 -10 -15 1
-15 9 0 14 -12 15 -30 1 -19 -3 -27 -10 -23 -6 4 -5 -1 3 -10 12 -15 11 -17
-3 -17 -9 0 -16 -5 -16 -11 0 -5 -4 -7 -10 -4 -5 3 -10 2 -10 -3 0 -4 -16 -14
-35 -22 -19 -8 -35 -18 -35 -22 0 -5 -4 -6 -10 -3 -12 8 -13 -5 -1 -24 6 -9
11 -10 15 -2 9 15 28 3 20 -12 -3 -7 2 -3 10 7 16 20 16 20 16 0 0 -14 2 -16
9 -5 6 10 10 10 16 1 4 -6 13 -9 21 -6 8 3 14 1 14 -4 0 -6 3 -9 8 -9 4 1 14
1 22 0 13 -1 13 -2 0 -11 -8 -5 -10 -10 -3 -10 6 0 10 -13 9 -30 -2 -21 2 -30
13 -30 9 0 12 -3 6 -8 -13 -9 -13 -38 1 -52 7 -7 16 -5 30 6 10 8 13 12 6 9
-11 -6 -11 -3 -1 13 7 12 18 18 24 14 5 -3 4 2 -4 11 -12 16 -8 22 12 18 5 -1
6 3 2 9 -7 11 7 42 18 41 24 -3 37 0 32 9 -3 5 8 2 25 -8 26 -15 32 -15 40 -2
8 12 10 12 16 -3 3 -9 10 -17 16 -17 5 0 6 5 2 11 -5 8 -1 8 14 0 18 -9 19 -8
15 12 -6 21 -57 77 -71 77 -4 0 -13 9 -20 21 -11 17 -11 20 0 13 11 -6 11 -5
0 8 -11 14 -10 18 8 28 17 9 19 14 9 26 -9 11 -8 14 5 14 9 0 15 3 14 8 -4 16
14 52 24 46 7 -4 8 -2 4 5 -4 6 -20 10 -36 9 -16 -1 -26 -6 -24 -10 3 -4 -4
-8 -16 -8 -12 0 -19 -4 -16 -9 4 -5 -2 -7 -13 -4 -10 3 -22 -1 -26 -8 -6 -8
-4 -10 6 -4 8 5 10 4 6 0 -10 -12 -37 -15 -37 -5 0 5 -9 7 -20 5 -11 -2 -18 0
-15 6 4 5 -1 12 -9 15 -9 3 -13 10 -10 15 3 5 -4 9 -16 9 -12 0 -19 4 -16 9 8
12 -21 34 -33 26 -7 -3 -8 0 -5 9 3 9 3 16 0 16 -3 0 -6 -5 -6 -11z m295 -279
c3 -6 -1 -7 -9 -4 -18 7 -21 14 -7 14 6 0 13 -4 16 -10z"/>
<path d="M3343 3367 c1 -7 -4 -11 -11 -9 -8 1 -11 -2 -6 -9 5 -9 2 -10 -10 -6
-9 4 -15 3 -12 -1 3 -5 -8 -16 -25 -26 -16 -10 -26 -22 -23 -28 4 -7 2 -8 -4
-4 -10 6 -29 -6 -66 -40 -6 -5 -19 -13 -28 -17 -10 -3 -18 -10 -18 -15 0 -5
-7 -9 -15 -9 -8 0 -12 4 -9 9 3 4 -2 8 -10 8 -9 0 -16 5 -16 11 0 5 -4 8 -9 5
-7 -5 -19 2 -67 43 -7 5 -14 7 -18 4 -3 -3 -8 2 -12 11 -3 9 -10 14 -14 11 -4
-3 -13 2 -20 10 -7 8 -19 15 -27 15 -8 0 -12 4 -9 9 3 4 -7 6 -22 3 -21 -5
-23 -7 -8 -10 15 -3 16 -6 5 -13 -11 -7 -11 -9 -1 -9 7 0 10 -4 7 -10 -3 -5
-1 -10 5 -10 6 0 8 -5 5 -10 -3 -6 2 -13 11 -17 16 -6 16 -7 -2 -14 -14 -6
-15 -8 -3 -8 15 -1 19 -11 20 -54 0 -9 4 -15 10 -12 5 4 9 -4 9 -17 1 -13 7
-34 14 -46 11 -22 10 -27 -18 -55 -17 -17 -34 -30 -38 -29 -5 1 -8 -3 -8 -9 0
-5 -5 -7 -12 -3 -6 4 -8 3 -5 -3 4 -6 -9 -20 -29 -32 -19 -12 -33 -25 -29 -30
3 -6 -3 -8 -14 -6 -15 3 -18 0 -14 -12 4 -11 2 -14 -5 -9 -7 4 -12 2 -12 -4 0
-6 -4 -9 -8 -6 -5 3 -9 -2 -9 -10 0 -12 10 -15 44 -12 24 2 43 -1 43 -7 0 -5
4 -4 8 2 5 8 22 11 42 8 19 -2 40 0 46 6 8 7 15 6 20 -2 5 -8 3 -9 -6 -4 -9 6
-11 4 -5 -5 6 -10 10 -10 20 3 10 14 12 14 23 -1 7 -9 10 -12 7 -6 -2 7 2 15
11 18 10 4 13 2 8 -6 -5 -7 -2 -9 9 -5 11 4 14 2 10 -9 -3 -8 1 -14 9 -14 12
0 16 -12 20 -57 1 -7 5 -10 10 -7 8 5 12 -10 8 -35 -1 -8 4 -17 11 -22 7 -4
13 -15 14 -26 3 -23 34 -92 35 -75 0 6 4 12 10 12 5 0 7 -8 4 -17 -5 -15 -4
-15 4 -3 8 10 7 19 -1 29 -8 10 -8 13 -1 8 16 -10 25 18 11 33 -9 9 -9 11 -1
7 15 -9 26 17 17 40 -4 11 -3 14 5 9 8 -5 12 1 13 16 1 13 2 28 4 33 1 6 3 16
3 23 1 7 6 11 10 8 5 -3 9 1 9 9 0 8 -5 11 -11 7 -6 -3 -4 5 5 18 17 26 48 43
33 19 -6 -11 -5 -12 7 -2 8 6 33 12 56 11 23 0 46 3 52 6 6 4 11 1 11 -6 0 -9
3 -9 10 2 5 8 10 11 10 6 0 -5 8 -2 17 5 11 10 14 10 9 2 -4 -7 -3 -13 3 -13
5 0 12 6 14 13 4 9 6 8 6 -2 1 -11 4 -11 18 0 9 8 14 9 10 3 -3 -6 0 -11 8
-11 8 0 12 4 9 9 -3 4 3 8 13 8 16 1 16 2 -2 12 -11 6 -22 15 -25 19 -3 4 -12
9 -20 11 -7 2 -26 15 -41 30 -18 18 -29 23 -33 15 -2 -7 -5 -4 -5 6 -1 10 -5
16 -10 13 -5 -4 -11 -1 -13 4 -2 6 -11 12 -20 14 -30 4 -59 37 -52 60 4 12 12
24 18 28 8 6 8 8 -1 8 -6 0 -9 9 -6 20 3 11 8 18 12 16 3 -2 7 12 8 31 1 19 8
42 15 51 11 13 11 14 -2 7 -13 -8 -13 -6 -2 8 8 9 11 20 8 26 -3 5 1 12 10 15
13 5 14 9 5 20 -9 11 -9 15 1 18 8 3 6 7 -5 11 -10 4 -16 2 -14 -6z"/>
<path d="M1710 3271 c-14 -13 -19 -21 -11 -16 9 5 8 0 -3 -17 -9 -14 -13 -28
-9 -32 5 -4 1 -6 -7 -4 -8 2 -14 -3 -12 -10 1 -7 -5 -15 -13 -18 -8 -3 -12
-10 -9 -15 3 -5 0 -9 -6 -9 -6 0 -8 -4 -5 -10 3 -5 2 -10 -4 -10 -5 0 -13 -10
-17 -22 -11 -35 -37 -58 -54 -48 -8 5 -25 10 -37 10 -13 0 -23 6 -23 13 0 9
-3 8 -9 -2 -6 -10 -10 -10 -16 -1 -4 7 -17 9 -32 5 -16 -4 -22 -2 -18 4 3 7 0
8 -10 5 -8 -4 -22 -1 -29 5 -9 8 -16 8 -20 2 -4 -6 -15 -7 -30 -1 -17 6 -23 5
-23 -5 0 -8 4 -12 8 -9 4 2 10 -5 14 -16 3 -11 12 -20 19 -20 8 0 20 -8 27
-17 13 -17 13 -17 -6 -3 -19 14 -19 14 -6 -2 7 -10 20 -18 28 -18 8 0 12 -4 9
-9 -4 -5 8 -21 25 -35 17 -14 27 -26 23 -26 -4 0 2 -8 13 -17 24 -22 23 -58
-3 -78 -10 -8 -15 -15 -10 -15 5 0 2 -8 -6 -17 -9 -10 -19 -28 -22 -40 -4 -13
-12 -23 -17 -23 -6 0 -7 -5 -4 -10 3 -6 0 -13 -9 -16 -8 -3 -12 -12 -9 -20 3
-8 1 -14 -5 -14 -5 0 -12 -8 -14 -18 -4 -12 1 -18 13 -19 11 -1 19 3 19 8 0 6
4 8 9 5 5 -3 12 1 15 10 4 9 13 14 21 10 8 -3 15 -1 15 4 0 5 7 7 15 4 8 -4
15 -1 15 6 0 6 5 8 10 5 6 -3 10 -2 10 3 0 5 6 9 13 9 22 1 41 8 55 21 20 18
50 15 64 -8 7 -11 19 -20 27 -20 8 0 11 -3 8 -6 -3 -4 7 -19 23 -34 16 -15 26
-30 23 -34 -3 -3 -1 -6 5 -6 15 0 62 -45 62 -59 0 -9 5 -9 21 0 12 6 18 14 12
18 -5 3 -9 17 -8 31 0 14 -3 33 -8 43 -5 11 -3 17 4 17 9 0 9 3 0 14 -7 8 -10
26 -7 40 3 16 0 26 -7 26 -7 0 -6 4 3 10 12 8 12 10 1 10 -11 0 -11 3 0 17 8
9 9 14 3 10 -6 -3 -11 1 -11 9 0 8 6 13 13 10 8 -3 11 0 7 10 -3 8 1 14 11 15
32 3 37 4 44 14 4 6 16 12 27 13 11 2 25 8 30 14 7 8 6 8 -4 3 -10 -6 -12 -4
-7 4 6 9 11 9 22 0 11 -9 15 -8 20 5 3 9 10 13 15 10 5 -3 9 0 9 5 0 6 12 11
26 11 23 0 25 2 14 15 -11 13 -10 14 4 9 9 -3 16 -2 16 3 0 10 -2 10 -57 14
-18 1 -33 5 -33 9 0 5 -16 7 -36 6 -20 -1 -38 3 -41 8 -4 5 -1 6 7 1 9 -5 11
-4 6 4 -6 9 -11 9 -24 -1 -13 -11 -14 -11 -7 1 6 11 4 13 -8 8 -9 -3 -23 0
-30 8 -11 11 -17 11 -27 2 -9 -8 -11 -8 -7 -1 4 7 0 14 -8 18 -11 4 -13 11 -5
30 7 20 6 27 -8 35 -12 7 -13 10 -3 11 11 0 11 3 0 17 -12 15 -12 16 1 8 12
-7 13 -6 3 6 -10 12 -10 18 0 29 9 10 9 11 0 6 -14 -8 -16 0 -15 47 0 16 -4
25 -10 21 -7 -4 -7 0 0 13 17 31 -1 40 -28 14z"/>
<path d="M3300 3103 c0 -5 10 -18 23 -29 l22 -19 -20 25 c-11 14 -21 27 -22
29 -2 2 -3 0 -3 -6z"/>
<path d="M4963 2933 c1 -5 -8 -18 -20 -30 -27 -27 -18 -79 11 -60 2 1 12 -6
23 -15 18 -16 19 -15 21 47 3 60 2 65 -17 65 -12 0 -20 -3 -18 -7z"/>
<path d="M4113 2855 c-6 -7 -9 -15 -6 -19 3 -3 -2 -8 -11 -12 -9 -3 -13 -10
-10 -15 3 -5 -2 -12 -10 -15 -9 -3 -13 -10 -10 -15 3 -5 1 -9 -4 -9 -5 0 -12
-9 -15 -21 -3 -12 -10 -18 -17 -14 -6 4 -9 1 -8 -7 2 -7 -3 -12 -10 -10 -8 1
-11 -2 -8 -7 4 -5 2 -12 -4 -16 -6 -4 -7 -11 -4 -17 5 -7 2 -8 -5 -4 -8 5 -14
0 -18 -13 -3 -11 -9 -18 -14 -15 -5 3 -9 0 -9 -6 0 -6 -5 -8 -12 -4 -6 4 -8 3
-5 -3 6 -10 -26 -43 -43 -43 -6 0 -10 -6 -10 -14 0 -8 -5 -18 -12 -22 -7 -4
-8 -3 -4 4 4 7 2 12 -3 12 -6 0 -11 -4 -11 -9 0 -5 -9 -11 -21 -14 -14 -4 -18
-10 -13 -19 6 -10 4 -10 -9 1 -13 10 -17 10 -17 1 0 -7 -7 -10 -16 -6 -8 3
-12 2 -9 -4 5 -9 -15 -15 -37 -11 -5 0 -8 -3 -8 -9 0 -5 -13 -10 -28 -10 -15
0 -34 -6 -41 -12 -11 -11 -12 -10 -6 2 7 12 6 13 -6 4 -8 -6 -26 -9 -42 -8
-15 2 -25 -1 -23 -5 3 -4 -15 -6 -40 -5 -24 2 -42 -1 -39 -6 3 -5 0 -12 -6
-16 -8 -4 -9 -3 -5 4 5 8 -1 12 -14 12 -12 0 -18 -4 -15 -10 4 -7 -3 -7 -19 0
-14 5 -26 6 -26 1 0 -4 -10 -7 -22 -6 -13 1 -29 -3 -37 -9 -10 -7 -13 -8 -8 0
3 6 0 11 -8 11 -8 0 -11 -5 -8 -10 4 -6 0 -8 -9 -4 -9 3 -21 0 -28 -6 -10 -9
-11 -9 -6 3 4 8 0 6 -8 -4 -11 -14 -16 -15 -16 -6 0 11 -3 11 -12 2 -7 -7 -22
-12 -34 -12 -12 0 -25 -6 -27 -12 -4 -10 -6 -9 -6 1 -1 11 -6 10 -23 -5 -12
-10 -18 -13 -14 -6 11 18 -5 14 -20 -5 -10 -14 -13 -15 -14 -4 0 11 -4 10 -16
-5 -8 -10 -12 -12 -8 -4 5 10 -1 8 -16 -5 -14 -12 -20 -14 -15 -5 8 13 7 13
-10 0 -14 -11 -19 -12 -22 -2 -3 6 -9 10 -13 7 -5 -3 -6 -13 -3 -23 3 -9 3
-14 -1 -11 -12 11 -15 49 -4 49 7 0 4 6 -7 13 -11 9 -15 19 -10 27 5 9 4 11
-3 6 -7 -4 -12 -1 -12 8 0 8 -4 16 -9 18 -5 2 -11 10 -13 18 -2 8 -12 20 -23
27 -14 9 -16 12 -5 13 11 0 12 2 3 8 -7 4 -10 17 -6 30 3 12 9 20 13 17 5 -3
11 4 15 15 3 11 10 20 14 20 5 0 14 14 21 30 7 17 18 30 26 30 8 0 11 6 7 17
-4 10 -2 14 5 9 6 -3 14 -1 18 5 4 8 3 9 -4 5 -7 -4 -12 -2 -12 4 0 7 -6 8
-19 0 -11 -5 -27 -7 -37 -3 -13 5 -15 3 -9 -7 6 -10 4 -12 -8 -7 -10 4 -17 2
-17 -4 0 -6 -7 -9 -15 -5 -8 3 -15 0 -15 -7 0 -8 -4 -6 -10 3 -8 12 -10 12
-10 1 0 -8 -7 -11 -20 -8 -11 3 -18 1 -15 -3 3 -5 0 -12 -6 -16 -8 -4 -9 -3
-5 5 4 6 0 14 -8 17 -9 3 -13 10 -10 15 3 5 -3 9 -12 9 -10 0 -15 3 -11 6 3 3
1 11 -4 18 -49 59 -58 73 -54 84 2 7 -4 12 -16 12 -11 0 -17 -4 -14 -10 3 -5
2 -10 -2 -10 -5 0 -9 -9 -10 -20 -1 -13 2 -18 10 -13 7 4 7 1 -1 -10 -8 -9
-11 -21 -7 -27 3 -5 1 -10 -6 -10 -8 0 -8 -4 1 -15 9 -11 9 -15 1 -15 -8 0 -9
-5 -1 -19 13 -25 13 -41 0 -21 -8 12 -10 10 -10 -9 0 -13 -3 -21 -7 -18 -3 4
-12 -1 -19 -11 -12 -15 -15 -15 -24 -2 -7 12 -10 12 -10 1 0 -7 -6 -11 -14 -8
-8 3 -17 -2 -21 -11 -5 -13 -8 -14 -14 -3 -6 9 -11 10 -15 2 -4 -6 -16 -11
-27 -11 -11 0 -27 -7 -35 -15 -9 -8 -12 -15 -7 -15 5 0 14 5 20 11 8 8 11 6
10 -7 -1 -12 4 -18 12 -16 8 2 18 -3 22 -10 7 -10 9 -10 9 1 0 9 7 6 20 -9 13
-15 20 -18 20 -9 0 10 2 11 8 2 4 -7 18 -14 30 -16 12 -2 30 -14 39 -27 9 -13
11 -20 5 -16 -7 4 -10 -1 -9 -14 1 -11 6 -20 12 -21 5 0 1 -4 -10 -9 -19 -8
-19 -9 -1 -9 17 -1 18 -2 1 -27 -9 -15 -13 -24 -7 -20 5 3 13 -1 16 -10 3 -8
2 -13 -3 -10 -5 3 -8 -9 -8 -27 1 -24 6 -33 18 -33 10 0 16 4 13 8 -2 4 4 11
13 17 12 7 14 10 4 11 -8 0 1 14 20 31 19 17 28 28 20 23 -9 -5 -12 -3 -7 4 4
7 14 12 21 12 9 0 12 6 8 17 -4 11 -3 14 5 9 7 -4 12 -2 12 4 0 7 7 9 16 6 12
-5 15 -2 10 11 -4 13 0 11 14 -6 12 -14 20 -18 20 -10 0 10 3 10 8 3 4 -6 15
-10 24 -9 12 2 15 -2 11 -13 -5 -14 -3 -14 7 -5 10 9 18 8 36 -4 13 -8 24 -11
24 -7 0 5 5 2 10 -6 11 -17 14 -47 3 -37 -3 4 -13 1 -21 -6 -13 -10 -14 -9 -7
3 4 8 -3 6 -16 -6 -13 -12 -31 -25 -39 -29 -13 -8 -13 -7 0 11 14 19 14 19 -7
0 -13 -10 -20 -24 -16 -30 4 -6 0 -5 -9 2 -13 10 -17 10 -22 -3 -3 -8 -12 -15
-21 -15 -8 0 -15 -4 -15 -9 0 -5 -14 -12 -30 -16 -17 -4 -28 -10 -25 -15 5 -9
-33 -26 -48 -22 -5 1 -6 -2 -2 -8 3 -5 -1 -13 -9 -16 -9 -3 -13 -10 -10 -15 3
-5 -2 -6 -10 -3 -9 4 -18 -1 -22 -10 -3 -9 -12 -16 -20 -16 -8 0 -14 -7 -14
-15 0 -8 -6 -15 -14 -15 -7 0 -21 -11 -30 -24 -8 -13 -21 -23 -28 -22 -19 2
-59 32 -52 38 3 3 -3 5 -13 4 -11 0 -17 5 -15 14 2 8 0 12 -4 7 -4 -4 -14 -1
-23 7 -9 8 -25 16 -36 18 -11 2 -19 10 -17 16 1 7 -1 11 -5 10 -15 -4 -53 13
-53 23 0 6 -4 7 -10 4 -5 -3 -10 -1 -10 5 0 6 -4 8 -10 5 -5 -3 -10 1 -10 9 0
9 -3 15 -7 14 -14 -4 -53 13 -53 23 0 5 -3 8 -7 7 -14 -2 -48 15 -60 31 -7 9
-13 12 -13 7 0 -5 -8 -2 -17 5 -14 12 -16 12 -9 -1 4 -8 0 -6 -8 4 -9 12 -16
14 -16 7 0 -9 -4 -8 -15 3 -18 18 -19 36 -2 36 8 0 7 4 -3 10 -13 8 -12 10 3
10 9 0 17 6 17 14 0 8 7 16 15 20 23 8 18 23 -10 28 -14 3 -23 1 -22 -6 1 -6
-4 -10 -12 -8 -7 1 -19 -3 -27 -9 -11 -9 -14 -9 -14 0 0 7 -8 11 -17 9 -17 -3
-19 1 -22 39 0 9 -4 14 -7 10 -4 -3 -15 4 -25 16 l-18 22 5 -25 c5 -20 3 -22
-5 -10 -7 9 -11 10 -11 3 0 -6 5 -15 10 -18 8 -5 7 -12 -2 -23 -11 -13 -11
-14 0 -8 11 7 12 4 3 -13 -7 -12 -10 -25 -7 -30 3 -4 -6 -6 -19 -3 -14 2 -25
9 -25 14 0 5 -9 6 -20 3 -11 -3 -20 -2 -20 3 0 5 -11 8 -25 7 -14 -2 -25 2
-25 8 0 7 -5 5 -10 -3 -7 -11 -10 -11 -10 -2 0 9 -5 10 -19 2 -14 -7 -22 -7
-27 2 -5 7 -3 8 6 3 9 -5 11 -4 6 3 -4 8 -15 8 -31 2 -23 -9 -29 -6 -27 11 1
3 -5 6 -13 6 -8 0 -11 -7 -7 -16 5 -14 3 -14 -10 -3 -11 9 -18 10 -23 2 -3 -6
-12 -7 -18 -3 -7 4 -19 6 -29 5 -9 -2 -19 2 -22 7 -4 6 -13 8 -21 5 -8 -4 -12
-10 -9 -15 3 -5 -2 -6 -10 -3 -9 3 -13 11 -9 18 4 7 2 7 -8 -1 -17 -14 -91
-15 -83 -2 3 5 -2 6 -10 3 -9 -3 -13 -11 -10 -18 3 -6 -2 -2 -10 8 -14 17 -16
17 -16 3 0 -16 -15 -16 -54 -1 -15 6 -17 4 -11 -7 5 -8 -2 -5 -15 6 -13 11
-20 14 -16 8 9 -16 -30 -18 -39 -3 -4 7 -12 7 -25 0 -24 -13 -33 -13 -24 1 4
7 -1 7 -16 -1 -13 -7 -25 -8 -29 -3 -7 10 -26 11 -36 1 -9 -8 -36 2 -31 11 3
4 -4 7 -15 7 -10 0 -19 -5 -19 -10 0 -5 -9 -1 -19 8 -13 12 -21 14 -26 6 -5
-8 -11 -8 -21 1 -8 6 -23 9 -34 6 -11 -3 -18 0 -17 6 1 6 -2 11 -8 12 -5 0
-16 4 -24 9 -10 7 -12 6 -6 -3 6 -10 3 -11 -14 -1 -12 6 -19 16 -15 22 4 6 1
9 -7 6 -16 -5 -49 21 -49 40 0 7 -3 11 -7 9 -10 -6 -34 19 -26 27 3 3 -2 8
-11 12 -9 3 -16 13 -16 20 0 8 -7 17 -15 20 -8 4 -12 10 -9 15 3 5 0 9 -6 9
-8 0 -8 6 0 20 8 14 8 20 0 20 -6 0 -8 6 -4 13 4 6 4 9 -1 5 -4 -4 -15 -2 -23
5 -12 9 -14 9 -9 0 8 -13 -22 -55 -34 -47 -5 2 -13 -5 -19 -16 -9 -16 -8 -22
5 -26 9 -4 14 -12 12 -18 -5 -13 27 -58 36 -50 2 3 7 -2 11 -11 3 -10 2 -14
-5 -9 -6 3 1 -11 14 -32 14 -22 27 -46 29 -54 2 -8 10 -21 18 -28 8 -8 9 -11
2 -7 -16 8 -15 0 2 -18 8 -8 16 -23 18 -33 2 -10 6 -21 10 -24 4 -3 9 -16 11
-28 2 -12 7 -25 12 -29 4 -5 5 -2 0 6 -5 9 -4 12 3 7 6 -4 9 -13 5 -21 -3 -8
1 -15 8 -15 7 0 9 -3 6 -7 -4 -3 0 -14 9 -24 10 -11 12 -19 4 -24 -5 -3 -7
-12 -3 -18 4 -7 -6 -4 -21 7 -16 10 -26 13 -22 8 7 -11 -32 -28 -41 -18 -4 3
-12 1 -20 -5 -9 -8 -13 -8 -13 -1 0 6 -7 9 -15 6 -8 -4 -13 -10 -10 -14 3 -5
-8 -5 -24 0 -17 5 -33 4 -39 -2 -6 -6 -12 -6 -17 3 -6 8 -4 10 6 4 8 -5 11 -4
6 0 -12 14 -48 14 -37 0 6 -7 3 -11 -10 -11 -10 0 -17 3 -14 7 2 4 -3 9 -11
12 -10 4 -12 1 -8 -11 6 -14 4 -15 -9 -4 -8 7 -23 10 -32 6 -10 -4 -16 -1 -16
7 0 11 -3 11 -10 -1 -7 -11 -10 -11 -10 -2 0 7 -4 11 -9 8 -5 -4 -12 0 -14 6
-4 10 -6 10 -6 0 -1 -10 -6 -10 -22 -1 -15 8 -19 8 -15 0 4 -6 3 -11 -3 -11
-5 0 -8 -11 -7 -25 2 -13 -1 -22 -5 -19 -16 9 -9 -12 10 -34 10 -12 21 -18 25
-14 4 4 7 2 6 -3 -5 -22 1 -36 29 -67 24 -27 26 -35 15 -45 -8 -8 -15 -9 -19
-3 -3 6 -11 10 -16 10 -6 0 -7 -6 -3 -12 6 -10 4 -10 -7 -2 -20 16 -48 14 -42
-3 5 -12 -9 -18 -31 -14 -5 1 -4 -5 4 -13 9 -12 9 -16 1 -16 -7 0 -10 -4 -6
-9 3 -6 -3 -14 -12 -20 -10 -5 -14 -13 -10 -17 4 -4 -1 -16 -10 -27 -10 -11
-12 -17 -5 -13 11 7 11 4 0 -13 -7 -12 -16 -21 -20 -21 -4 0 -5 -9 -3 -20 2
-11 0 -18 -6 -15 -8 6 -11 -2 -8 -21 0 -4 -4 -10 -11 -14 -6 -4 -12 -13 -14
-21 -1 -8 -7 -24 -14 -35 -6 -12 -8 -25 -4 -30 4 -5 -2 -2 -12 6 -17 13 -18
13 -11 1 6 -11 4 -13 -8 -8 -10 4 -17 1 -17 -6 0 -7 -3 -8 -8 -2 -8 12 -37 13
-49 2 -4 -5 -9 -39 -10 -75 -1 -57 2 -73 25 -109 14 -23 29 -40 33 -37 4 2 6
-3 5 -11 0 -7 3 -13 8 -12 9 2 30 -42 28 -55 -1 -5 5 -8 13 -8 8 0 15 -7 15
-16 0 -8 5 -12 10 -9 6 3 10 -3 10 -13 0 -20 23 -46 32 -36 3 2 8 -2 12 -11 4
-11 2 -14 -7 -9 -6 4 3 -8 20 -26 18 -18 30 -37 26 -43 -4 -6 -1 -7 6 -3 8 5
14 0 18 -13 3 -11 9 -18 14 -15 5 3 9 -2 9 -11 0 -8 7 -18 16 -22 8 -3 13 -12
10 -20 -3 -8 -1 -11 4 -8 6 3 14 -5 20 -20 5 -14 17 -28 25 -31 8 -4 15 -13
15 -21 0 -8 5 -11 10 -8 6 3 10 -1 10 -9 0 -9 4 -16 9 -16 5 0 13 -9 16 -20 3
-11 13 -20 21 -20 8 0 12 -4 9 -10 -3 -6 -1 -10 6 -10 7 0 9 -3 6 -6 -3 -4 7
-19 23 -34 16 -15 26 -30 23 -34 -3 -3 1 -6 11 -6 9 0 14 -4 11 -10 -3 -5 -1
-10 5 -10 6 0 8 -4 5 -10 -3 -5 1 -10 9 -10 9 0 15 -6 13 -12 -1 -7 4 -12 11
-10 8 1 11 -2 7 -7 -3 -6 5 -21 17 -33 13 -13 22 -26 21 -30 -2 -4 7 -10 19
-13 16 -6 18 -9 7 -16 -10 -6 -8 -9 9 -9 13 0 20 -4 17 -10 -3 -6 9 -24 27
-42 18 -17 24 -25 13 -17 -19 13 -19 13 -6 -4 8 -9 16 -15 19 -12 3 3 11 0 19
-6 7 -6 13 -7 13 -2 0 12 53 11 62 -2 5 -6 8 -4 8 5 0 13 1 13 10 0 5 -8 10
-10 10 -4 0 8 11 9 35 4 21 -5 35 -4 35 1 0 6 10 5 21 -2 17 -9 20 -8 13 3 -6
11 -5 11 9 -1 9 -7 17 -10 17 -5 0 12 73 11 82 -1 5 -6 8 -4 8 5 0 13 1 13 10
0 7 -11 10 -11 10 -2 0 10 5 10 20 2 15 -8 20 -8 20 2 0 9 3 9 10 -2 7 -11 10
-11 10 -2 0 10 5 10 21 1 17 -9 20 -8 14 2 -6 8 -4 11 7 6 9 -3 21 0 28 6 10
9 11 9 6 0 -9 -16 6 -17 22 -1 9 9 12 9 12 -3 0 -12 2 -12 10 1 8 13 10 13 10
1 0 -12 3 -12 12 -3 14 14 32 16 23 2 -3 -5 7 -5 25 1 17 6 37 8 45 5 8 -3 15
0 15 6 0 7 5 6 15 -2 8 -7 15 -8 15 -3 0 5 19 9 42 8 24 0 46 4 50 10 5 6 8 5
8 -4 0 -11 3 -11 17 0 9 8 14 9 10 3 -3 -6 1 -11 9 -11 8 0 13 6 10 13 -3 8 0
11 10 7 7 -3 14 -9 14 -15 0 -5 7 -2 16 7 12 12 19 13 30 4 8 -6 14 -7 14 -3
0 5 19 9 43 8 23 -1 47 3 54 8 7 5 14 5 18 -2 3 -5 11 -10 16 -10 6 0 7 5 4
10 -8 13 17 9 26 -4 4 -5 13 -5 20 0 8 5 36 9 62 10 26 1 54 5 62 8 8 3 15 0
15 -6 0 -7 7 -3 16 8 8 10 13 13 9 7 -7 -16 11 -17 20 -3 5 8 11 8 19 1 9 -7
17 -7 26 2 10 10 11 9 5 -3 -8 -13 -7 -13 8 -1 14 11 17 11 17 0 0 -9 3 -10 8
-4 4 6 25 11 47 13 30 2 47 -3 67 -21 15 -13 25 -27 21 -31 -3 -3 1 -6 11 -6
11 0 15 -5 10 -12 -4 -7 -4 -10 0 -6 5 4 19 3 32 -2 13 -5 24 -6 24 -1 0 5 18
5 40 1 22 -4 40 -5 40 -1 0 10 95 7 102 -4 5 -6 8 -4 8 5 0 13 1 13 10 0 8
-12 10 -12 15 2 4 10 13 14 22 11 10 -4 14 -2 9 5 -3 6 -2 13 4 17 5 3 10 0
11 -7 0 -7 4 -3 9 9 5 13 14 23 20 23 6 0 8 6 4 13 -4 6 -4 9 1 5 4 -4 15 -2
23 5 13 9 14 9 8 0 -4 -7 -2 -13 3 -13 6 0 11 5 11 11 0 8 5 7 16 -2 19 -16
56 -20 47 -5 -4 6 1 5 10 -3 13 -10 17 -10 17 -1 0 10 3 10 14 1 10 -9 16 -9
21 -1 5 8 11 8 21 -1 11 -9 18 -8 31 2 11 10 14 10 9 2 -7 -13 3 -17 37 -13
10 1 24 -4 32 -10 10 -8 15 -8 21 1 5 8 3 9 -6 4 -9 -5 -11 -4 -6 4 6 9 11 9
22 0 8 -6 14 -8 14 -5 0 4 8 2 18 -3 11 -6 24 -6 35 0 9 6 17 6 17 1 0 -5 7
-9 15 -9 8 0 15 5 15 10 0 6 5 6 13 -1 6 -5 38 -9 70 -8 33 0 61 -2 63 -6 3
-4 12 -4 21 -1 10 4 14 2 10 -4 -3 -5 1 -10 9 -10 9 0 13 6 9 16 -5 12 -3 12
13 -2 14 -13 21 -14 30 -5 9 9 12 9 12 1 0 -7 10 -10 21 -8 12 2 31 0 41 -6
15 -8 19 -8 14 0 -10 15 7 14 23 -1 11 -10 13 -10 7 0 -4 6 -3 12 3 12 5 0 12
-6 14 -12 4 -10 6 -9 6 1 1 10 7 10 27 -4 15 -9 24 -12 20 -7 -3 6 -2 13 4 17
5 3 10 -2 10 -12 0 -14 2 -15 9 -4 6 10 10 10 16 1 5 -8 12 -6 26 6 19 17 20
17 26 -4 5 -20 7 -21 18 -6 8 11 17 14 26 8 8 -5 22 -7 33 -5 10 1 16 -1 13
-6 -3 -4 17 -8 44 -8 27 0 49 3 49 6 0 4 18 3 40 -1 22 -4 40 -4 40 0 0 4 18
4 40 0 22 -4 40 -4 40 0 0 4 18 4 40 0 22 -4 40 -3 40 1 0 5 5 9 11 9 5 0 8
-4 5 -9 -4 -5 4 -7 16 -4 38 8 68 26 68 39 0 7 6 17 13 21 7 4 21 25 32 45 11
21 25 38 32 38 12 0 18 14 13 35 -1 5 2 7 6 2 9 -8 44 21 44 37 0 6 16 28 35
49 19 21 35 42 35 48 0 5 5 9 10 9 6 0 10 7 10 15 0 9 6 12 17 8 10 -4 14 -2
10 4 -4 6 0 19 9 27 8 9 12 16 7 16 -4 1 3 7 17 15 14 8 21 14 16 15 -5 0 1 9
14 20 13 11 20 20 15 20 -4 0 7 14 24 32 17 17 31 40 31 50 0 11 5 16 10 13 6
-4 7 -11 4 -17 -4 -7 -2 -8 4 -4 7 4 12 14 12 23 0 9 10 24 22 34 11 11 18 19
14 19 -4 0 7 13 23 29 16 16 27 32 24 35 -4 3 1 6 11 6 9 0 15 4 11 9 -3 5 -1
12 5 16 6 4 7 12 4 18 -4 7 -4 9 1 5 5 -5 15 1 22 12 8 11 19 17 25 14 7 -4 8
-2 4 4 -4 7 -2 12 3 12 6 0 10 6 8 13 -1 6 4 11 11 9 8 -1 11 2 8 6 -7 12 33
58 46 54 5 -1 7 2 4 7 -4 5 -1 13 5 16 5 4 8 13 5 21 -3 8 0 11 10 7 16 -6 19
12 4 22 -8 5 -7 11 1 21 8 10 8 14 0 14 -7 0 -8 8 -1 24 6 16 5 28 -3 36 -9
10 -9 11 3 6 8 -4 5 1 -7 12 -12 11 -19 23 -15 27 4 5 1 5 -6 1 -7 -4 -10 -12
-7 -17 4 -5 1 -9 -4 -9 -6 0 -11 5 -11 11 0 8 -6 7 -17 -2 -9 -8 -14 -9 -10
-3 4 7 0 15 -9 18 -8 3 -13 10 -10 15 3 5 -1 12 -10 15 -8 3 -12 10 -9 16 3 5
1 10 -6 10 -8 0 -8 5 2 18 7 9 10 14 5 10 -12 -10 -39 20 -32 37 3 9 -1 15
-10 15 -10 0 -14 6 -10 15 3 8 -1 21 -9 29 -8 8 -15 24 -15 35 0 12 -5 21 -11
21 -6 0 -9 9 -6 19 3 15 1 18 -11 14 -11 -5 -14 -1 -10 14 7 26 -24 54 -63 57
-15 1 -26 -1 -23 -5 2 -4 -3 -10 -11 -13 -21 -8 -31 20 -15 39 10 12 10 15 -1
15 -12 0 -12 2 0 9 7 5 11 13 7 19 -3 5 1 13 10 16 9 3 14 12 11 19 -2 6 3 18
12 25 12 10 13 12 1 6 -12 -7 -13 -5 -3 8 7 8 10 18 6 21 -3 4 -1 7 6 7 7 0 9
5 6 10 -3 6 1 13 9 16 22 8 20 25 -1 18 -17 -5 -17 -5 0 6 9 6 15 15 12 21 -4
5 0 9 8 9 9 0 12 9 9 30 -2 18 -9 27 -15 23 -7 -4 -8 0 -3 13 4 10 4 15 0 11
-4 -4 -13 -2 -20 4 -16 13 -37 2 -28 -13 4 -7 2 -8 -5 -4 -6 4 -18 2 -26 -4
-8 -7 -15 -9 -15 -4 0 4 -7 -1 -16 -12 -8 -10 -12 -12 -8 -4 7 12 5 13 -8 3
-8 -7 -18 -10 -21 -6 -4 3 -7 1 -7 -7 0 -10 -3 -10 -15 0 -12 10 -15 10 -15 0
0 -7 -7 -10 -15 -6 -8 3 -15 0 -15 -7 0 -8 -3 -8 -9 2 -6 9 -11 10 -15 2 -4
-6 -12 -11 -17 -11 -6 0 -7 6 -3 13 5 8 2 8 -9 -2 -14 -11 -17 -11 -17 0 0 10
-3 10 -12 1 -16 -16 -31 -15 -22 1 5 8 2 8 -9 -2 -14 -11 -17 -11 -17 0 0 11
-2 11 -10 -1 -9 -13 -10 -13 -10 0 0 13 -1 13 -10 0 -9 -13 -10 -13 -10 0 0
12 -2 13 -9 1 -6 -9 -10 -10 -12 -2 -2 6 -21 12 -42 13 -20 1 -37 4 -37 8 0 3
-17 7 -37 8 -20 2 -44 8 -52 15 -12 10 -13 9 -6 -3 7 -12 6 -13 -6 -3 -15 12
-17 13 -46 14 -16 0 -16 1 1 8 18 7 18 8 2 14 -9 4 -14 11 -11 17 4 6 11 8 16
5 13 -9 11 9 -3 24 -11 10 -10 12 2 9 8 -2 15 4 15 12 0 8 5 22 10 30 5 8 8
23 7 33 -2 9 4 20 13 23 13 5 13 9 3 22 -11 13 -11 14 1 7 11 -6 13 -3 9 13
-4 12 -3 20 2 17 10 -6 18 14 15 42 -1 12 2 20 6 17 4 -2 10 0 14 6 3 5 1 10
-6 10 -8 0 -7 4 3 13 9 6 18 21 20 32 2 11 8 23 13 27 6 4 10 11 10 15 1 4 6
18 13 30 8 14 9 24 2 28 -6 4 -8 11 -4 16 3 5 10 6 16 3 6 -4 8 -2 5 3 -4 6 2
22 13 36 17 22 18 26 4 31 -8 3 -12 2 -9 -4 3 -6 1 -10 -4 -10 -6 0 -11 5 -11
11 0 6 -7 17 -15 25 -12 12 -15 12 -15 2 0 -9 -2 -10 -8 -2 -5 9 -10 8 -19 -1z"/>
<path d="M2125 2810 c-4 -6 -10 -8 -15 -5 -4 3 -7 -3 -6 -12 2 -9 8 -19 14
-21 7 -2 12 -15 12 -28 0 -14 4 -23 9 -19 6 3 8 -3 6 -14 -2 -11 3 -22 11 -25
7 -3 11 -12 8 -21 -3 -8 -10 -13 -14 -10 -5 3 -11 -4 -15 -15 -3 -11 -13 -20
-21 -20 -9 0 -12 -5 -8 -12 5 -8 2 -9 -10 -5 -10 4 -15 3 -11 -3 3 -6 1 -10
-5 -10 -6 0 -8 -5 -5 -10 4 -6 3 -10 -2 -9 -4 1 -15 1 -22 0 -12 -1 -12 -4 -3
-13 15 -15 104 -17 114 -3 5 6 8 6 8 -2 0 -6 9 -9 23 -6 18 4 19 3 7 -6 -13
-9 -12 -11 3 -11 10 0 15 -4 12 -10 -3 -5 -1 -10 4 -10 6 0 11 -11 11 -24 0
-14 5 -28 11 -31 6 -4 8 -13 5 -21 -3 -8 0 -13 7 -11 7 1 11 -3 10 -10 -2 -7
4 -10 13 -6 13 5 13 7 2 14 -9 6 -9 9 -1 9 6 0 10 9 8 20 -2 11 0 20 5 20 4 0
11 7 14 16 3 8 2 13 -2 10 -5 -3 -9 1 -9 9 0 8 4 12 9 9 7 -5 13 19 9 40 -1 5
5 6 13 3 8 -3 17 -1 20 6 3 9 5 9 5 0 1 -7 6 -13 12 -13 5 0 8 4 5 8 -3 5 1 9
9 9 8 0 12 -4 10 -8 -7 -10 16 -5 42 9 16 9 24 9 29 0 4 -6 3 -8 -4 -4 -6 3
-13 2 -16 -3 -4 -5 2 -8 11 -6 10 1 16 9 14 16 -2 8 -4 19 -4 26 0 7 -4 10 -9
7 -4 -3 -15 2 -24 10 -8 9 -22 16 -30 16 -8 0 -14 5 -14 10 0 6 -7 10 -15 10
-25 0 -23 44 3 74 10 11 12 16 5 13 -6 -4 -14 -3 -17 2 -3 5 1 12 10 15 9 3
14 12 11 19 -2 6 0 20 5 30 11 21 -5 23 -22 2 -7 -9 -19 -14 -27 -11 -7 3 -13
-1 -13 -9 0 -7 -4 -17 -10 -20 -6 -3 -7 1 -4 12 4 15 3 14 -7 -2 -7 -11 -19
-24 -28 -29 -20 -13 -52 -15 -45 -4 3 4 -2 8 -10 8 -9 0 -16 5 -16 10 0 6 -7
10 -15 10 -8 0 -15 5 -15 10 0 6 -9 10 -21 10 -15 0 -19 5 -15 15 6 17 0 20
-9 5z"/>
</g>
</svg>
